<svg width="33" height="32" viewBox="0 0 33 32" fill="none" xmlns="http://www.w3.org/2000/svg">
<g filter="url(#filter0_d_9_19)">
<path d="M6.92969 14.954L5.06509 14.5426C4.5186 15.6452 4 16.8837 4 18.3105C4 19.7101 4.49761 20.9336 5.06509 22.0785L11.373 20.687V23.4312L13.5703 22.3325L15.7676 23.4312V20.6884L22.0263 22.0792C22.5686 20.9853 23.0918 19.7435 23.0918 18.3105C23.0918 18.0636 23.0735 17.8177 23.0428 17.5781H29V0H6.92969V14.954ZM5.90088 20.394C5.71035 19.8902 5.46484 19.0898 5.46484 18.3105C5.46484 17.5312 5.7104 16.7307 5.90088 16.227L11.373 17.4342V19.1869L5.90088 20.394ZM14.3027 21.061L13.5703 20.6948L12.8379 21.061V17.5781H14.3027V21.061ZM21.1913 20.3931L15.7676 19.1878V17.4332L21.1913 16.2279C21.3817 16.7318 21.627 17.5317 21.627 18.3105C21.627 19.0895 21.3817 19.8895 21.1913 20.3931ZM27.5352 1.46484V16.1133H22.7038C22.4637 15.3788 22.2701 15.0319 22.0263 14.5418L14.9548 16.1133H12.1854L8.39453 15.277V1.46484H27.5352Z" fill="#F3EBDD"/>
<path d="M12.8379 2.92969H23.0918V4.39453H12.8379V2.92969Z" fill="#F3EBDD"/>
<path d="M9.85938 8.78906H26.0703V10.2539H9.85938V8.78906Z" fill="#F3EBDD"/>
<path d="M12.8379 11.7188H23.0918V13.1836H12.8379V11.7188Z" fill="#F3EBDD"/>
<path d="M14.3027 5.85938H15.7676V7.32422H14.3027V5.85938Z" fill="#F3EBDD"/>
<path d="M17.2324 5.85938H18.6973V7.32422H17.2324V5.85938Z" fill="#F3EBDD"/>
<path d="M20.1621 5.85938H21.627V7.32422H20.1621V5.85938Z" fill="#F3EBDD"/>
</g>
<defs>
<filter id="filter0_d_9_19" x="0" y="0" width="33" height="31.4312" filterUnits="userSpaceOnUse" color-interpolation-filters="sRGB">
<feFlood flood-opacity="0" result="BackgroundImageFix"/>
<feColorMatrix in="SourceAlpha" type="matrix" values="0 0 0 0 0 0 0 0 0 0 0 0 0 0 0 0 0 0 127 0" result="hardAlpha"/>
<feOffset dy="4"/>
<feGaussianBlur stdDeviation="2"/>
<feComposite in2="hardAlpha" operator="out"/>
<feColorMatrix type="matrix" values="0 0 0 0 0 0 0 0 0 0 0 0 0 0 0 0 0 0 0.25 0"/>
<feBlend mode="normal" in2="BackgroundImageFix" result="effect1_dropShadow_9_19"/>
<feBlend mode="normal" in="SourceGraphic" in2="effect1_dropShadow_9_19" result="shape"/>
</filter>
</defs>
</svg>
